<svg viewBox="0 0 11.2667 16.627" xmlns="http://www.w3.org/2000/svg" xmlns:xlink="http://www.w3.org/1999/xlink" width="11.266724" height="16.626953" fill="none" customFrame="#000000">
	<path id="Vector (Stroke)" d="M5.17605 0.441126C5.45755 0.272229 5.80922 0.272229 6.09071 0.441126L10.5352 3.10779C10.8029 3.26844 10.9667 3.55777 10.9667 3.87001L10.9667 7.42556C10.9667 7.74581 10.7945 8.04129 10.5158 8.19907C10.2371 8.35686 9.8951 8.35254 9.6205 8.18778L5.63338 5.79551L1.64627 8.18778C1.37166 8.35254 1.02966 8.35686 0.750983 8.19907C0.472309 8.04129 0.300049 7.74581 0.300049 7.42556L0.300049 3.87001C0.300049 3.55777 0.46387 3.26844 0.731608 3.10779L5.17605 0.441126ZM2.07783 4.37329L2.07783 5.85562L5.17605 3.99668C5.45755 3.82778 5.80922 3.82778 6.09071 3.99668L9.18894 5.85562L9.18894 4.37329L5.63338 2.23996L2.07783 4.37329ZM2.07783 12.3733L2.07783 13.8556L5.17605 11.9967C5.45755 11.8278 5.80922 11.8278 6.09071 11.9967L9.18894 13.8556L9.18894 12.3733L5.63338 10.24L2.07783 12.3733ZM5.17605 8.44112C5.45755 8.27223 5.80922 8.27223 6.09071 8.44112L10.5352 11.1078C10.8029 11.2684 10.9667 11.5578 10.9667 11.87L10.9667 15.4256C10.9667 15.7458 10.7945 16.0413 10.5158 16.1991C10.2371 16.3569 9.8951 16.3525 9.6205 16.1878L5.63338 13.7955L1.64627 16.1878C1.37166 16.3525 1.02966 16.3569 0.750983 16.1991C0.472309 16.0413 0.300049 15.7458 0.300049 15.4256L0.300049 11.87C0.300049 11.5578 0.46387 11.2684 0.731608 11.1078L5.17605 8.44112Z" fill="rgb(122,76,217)" fill-rule="evenodd" />
	<path id="Vector (Stroke)" d="M5.17605 0.441126L0.731608 3.10779C0.46387 3.26844 0.300049 3.55777 0.300049 3.87001L0.300049 7.42556C0.300049 7.74581 0.472309 8.04129 0.750983 8.19907C1.02966 8.35686 1.37166 8.35254 1.64627 8.18778L5.63338 5.79551L9.6205 8.18778C9.8951 8.35254 10.2371 8.35686 10.5158 8.19907C10.7945 8.04129 10.9667 7.74581 10.9667 7.42556L10.9667 3.87001C10.9667 3.55777 10.8029 3.26844 10.5352 3.10779L6.09071 0.441126C5.80922 0.272229 5.45755 0.272229 5.17605 0.441126ZM2.07783 4.37329L5.63338 2.23996L9.18894 4.37329L9.18894 5.85562L6.09071 3.99668C5.80922 3.82778 5.45755 3.82778 5.17605 3.99668L2.07783 5.85562L2.07783 4.37329ZM2.07783 12.3733L5.63338 10.24L9.18894 12.3733L9.18894 13.8556L6.09071 11.9967C5.80922 11.8278 5.45755 11.8278 5.17605 11.9967L2.07783 13.8556L2.07783 12.3733ZM5.17605 8.44112L0.731608 11.1078C0.46387 11.2684 0.300049 11.5578 0.300049 11.87L0.300049 15.4256C0.300049 15.7458 0.472309 16.0413 0.750983 16.1991C1.02966 16.3569 1.37166 16.3525 1.64627 16.1878L5.63338 13.7955L9.6205 16.1878C9.8951 16.3525 10.2371 16.3569 10.5158 16.1991C10.7945 16.0413 10.9667 15.7458 10.9667 15.4256L10.9667 11.87C10.9667 11.5578 10.8029 11.2684 10.5352 11.1078L6.09071 8.44112C5.80922 8.27223 5.45755 8.27223 5.17605 8.44112Z" fill-rule="evenodd" stroke="rgb(255,255,255)" stroke-linecap="round" stroke-width="0.600000024" />
</svg>
